<svg width="80" height="80" viewBox="0 0 80 80" fill="none" xmlns="http://www.w3.org/2000/svg">
<path d="M79.9858 15.011C79.5452 16.2938 79.5483 17.6485 79.3749 18.972C78.7405 23.8157 78.1515 28.6595 77.5452 33.5032C77.2171 36.1329 76.878 38.761 76.5624 41.3939C76.389 42.8407 75.9827 43.3376 74.5655 43.5313C70.5249 44.086 66.4796 44.6095 62.4358 45.1485C57.5171 45.8048 52.5989 46.4626 47.6812 47.122C42.4259 47.822 37.1718 48.5199 31.9187 49.2157C29.3452 49.5595 26.7733 49.9251 24.2015 50.2798C23.1952 49.1189 22.803 47.697 22.5108 46.2392C20.8608 38.0235 19.2171 29.8069 17.5796 21.5892C16.9546 18.4642 16.3546 15.3267 15.7437 12.1954C15.8483 12.1954 15.9515 12.186 16.0562 12.186C36.6624 12.1871 57.2681 12.1876 77.8733 12.1876C78.8858 12.1876 79.553 12.5829 79.9858 13.4579V15.011ZM31.2624 41.4673C31.2546 41.3923 31.2437 41.1829 31.2108 40.9782C30.5942 37.2657 29.9754 33.5532 29.3546 29.8407C28.8483 26.8188 28.353 23.797 27.8187 20.7782C27.5812 19.4313 26.2562 18.7985 25.1843 19.472C24.5233 19.8923 24.278 20.6313 24.4421 21.6095C25.1088 25.5782 25.7713 29.547 26.4296 33.5157C26.89 36.2813 27.3551 39.0465 27.8249 41.811C28.014 42.9142 28.7749 43.5454 29.7437 43.4439C30.6562 43.3501 31.2718 42.6032 31.2624 41.4673ZM39.9858 39.7813C39.4874 34.3126 39.0046 28.922 38.503 23.5392C38.4046 22.4813 38.4218 21.4063 38.1374 20.3735C38.0479 20.0161 37.8375 19.7007 37.5419 19.4808C37.2462 19.2609 36.8836 19.1501 36.5155 19.1673C35.7671 19.1673 35.2327 19.5438 34.9312 20.2251C34.7577 20.6188 34.7999 21.0423 34.8358 21.4563C35.1062 24.5626 35.3749 27.6688 35.6593 30.7735C35.9405 33.8532 36.2202 36.9329 36.5374 40.0079C36.653 41.1282 37.4374 41.8017 38.3765 41.7157C39.3858 41.622 40.0155 40.8267 39.9858 39.7813ZM45.1983 29.5313C45.1983 32.3438 45.1843 35.1563 45.1983 37.9563C45.2077 39.1657 45.9124 39.9595 46.9093 39.9876C47.9327 40.0157 48.6546 39.2063 48.6999 37.9563C48.6999 37.7751 48.6999 37.5923 48.6999 37.411V28.1251C48.6999 25.836 48.6999 23.5485 48.6999 21.2595C48.6999 20.1313 48.2202 19.4313 47.3687 19.2282C46.1374 18.9313 45.2062 19.7813 45.1983 21.2595C45.1874 24.0188 45.1983 26.7751 45.1983 29.5313ZM59.0624 21.4563C59.1187 20.036 58.564 19.2688 57.5718 19.1642C56.5624 19.0626 55.7515 19.7798 55.6249 20.9376C55.0572 25.9688 54.4942 31.0006 53.9358 36.0329C53.7999 37.2532 54.4421 38.147 55.4843 38.2548C56.4358 38.3548 57.2249 37.6657 57.3765 36.4985C57.628 34.5673 57.8296 32.6313 58.0452 30.6954C58.3937 27.5517 58.7405 24.4032 59.0624 21.4563ZM69.5546 21.0251C69.532 20.7891 69.4944 20.5548 69.4421 20.3235C69.3351 19.9751 69.119 19.6704 68.8255 19.4543C68.532 19.2382 68.1768 19.1222 67.8124 19.1235C66.964 19.136 66.3437 19.6548 66.0937 20.6485C64.9562 25.1485 63.828 29.6506 62.7093 34.1548C62.5679 34.6071 62.6008 35.0958 62.8015 35.5251C62.948 35.8482 63.1935 36.1162 63.5025 36.2904C63.8115 36.4645 64.168 36.5358 64.5202 36.4938C65.3124 36.436 65.8546 35.9032 66.0827 34.9829C66.9265 31.6392 67.7629 28.2933 68.5921 24.9454C68.9171 23.6142 69.2468 22.2813 69.5593 21.0251H69.5546Z" fill="#FBE303"/>
<path d="M0.0141602 2.82819C0.729785 1.81413 1.75635 1.71257 2.89697 1.73444C5.83604 1.77976 8.77666 1.74694 11.7157 1.75007C13.136 1.75007 13.6688 2.17819 13.9657 3.59226C14.5673 6.45788 15.1563 9.33132 15.7438 12.2016C16.3548 15.3266 16.9563 18.4673 17.5798 21.5954C19.2173 29.8141 20.861 38.0308 22.511 46.2454C22.8032 47.7032 23.1954 49.1251 24.2017 50.286C25.9751 52.8173 28.4892 53.8891 31.497 53.8969C38.7563 53.9157 46.0157 53.8969 53.2751 53.8969C59.1563 53.8969 65.0371 53.8969 70.9173 53.8969C72.2392 53.8969 73.0251 54.5907 72.997 55.6923C72.9922 56.0856 72.8483 56.4645 72.591 56.7619C72.3336 57.0593 71.9793 57.256 71.5907 57.3173C71.3075 57.3551 71.0217 57.3702 70.736 57.3626C57.6735 57.3626 44.611 57.3626 31.5485 57.3626C25.7282 57.3626 20.9235 53.8735 19.4798 48.5016C18.8548 46.1469 18.461 43.7282 17.9813 41.3344C15.7105 30.0074 13.4423 18.6772 11.1767 7.34382C11.0392 6.65788 11.086 5.74694 10.6626 5.35788C10.1938 4.92507 9.27041 5.23444 8.54541 5.22819C6.56885 5.21101 4.58916 5.18444 2.60791 5.22819C1.52822 5.26569 0.612598 5.07038 0.0141602 4.07819V2.82819Z" fill="#454950"/>
<path d="M20.8955 69.575C20.8932 68.4344 21.1155 67.3044 21.5498 66.2497C21.9842 65.195 22.622 64.2361 23.4269 63.4279C25.0524 61.7956 27.2598 60.8759 29.5635 60.8711C31.8671 60.8663 34.0783 61.7769 35.7106 63.4025C36.5189 64.2074 37.1607 65.1636 37.5993 66.2165C38.038 67.2694 38.265 68.3984 38.2674 69.5391C38.2722 71.8427 37.3616 74.0539 35.7361 75.6862C34.1105 77.3185 31.9031 78.2382 29.5994 78.243C27.2958 78.2478 25.0846 77.3372 23.4523 75.7116C21.82 74.0861 20.9003 71.8787 20.8955 69.575Z" fill="#454950"/>
<path d="M73.0127 69.5937C73.0077 71.313 72.4927 72.9922 71.5329 74.4186C70.573 75.845 69.2116 76.9545 67.6208 77.6068C66.03 78.259 64.2815 78.4245 62.5966 78.0824C60.9117 77.7403 59.3662 76.9059 58.1557 75.685C56.9453 74.464 56.1243 72.9114 55.7968 71.2236C55.4693 69.5358 55.6499 67.7887 56.3158 66.2037C56.9818 64.6186 58.1031 63.2667 59.5377 62.3193C60.9724 61.3718 62.6559 60.8714 64.3752 60.8812C66.6744 60.8961 68.8741 61.8212 70.4929 63.454C72.1116 65.0869 73.0177 67.2945 73.0127 69.5937Z" fill="#454950"/>
</svg>
