<svg width="80" height="80" viewBox="0 0 80 80" fill="none" xmlns="http://www.w3.org/2000/svg">
<path d="M33.2814 79.9875C32.8845 79.7078 32.4017 79.7468 31.9595 79.6406C29.1562 78.9647 26.6468 77.4001 24.8061 75.1803C22.9654 72.9606 21.8923 70.2049 21.747 67.325C21.7189 66.75 21.522 66.6625 21.0142 66.664C16.6173 66.6828 12.2199 66.6828 7.822 66.664C4.697 66.6546 2.32825 64.7312 1.82356 61.7203C1.47512 59.6437 2.13606 57.8468 3.722 56.4609C6.75637 53.8046 9.047 50.6406 10.4126 46.8296C11.2914 44.3773 11.7371 41.7909 11.7298 39.1859C11.7298 36.1922 11.7298 33.1989 11.7298 30.2062C11.7501 18.85 19.4001 9.43903 30.5282 7.11871C33.6204 6.47496 36.7251 6.54528 39.8236 7.17809C40.3486 7.28434 40.2923 7.49059 40.1361 7.85934C38.8224 10.9344 38.2343 14.2705 38.4173 17.6093C38.8986 25.9984 42.8017 32.3625 49.9329 36.7562C52.3486 38.2437 55.0001 39.15 57.7907 39.625C58.2861 39.7078 58.4032 39.8797 58.4298 40.3562C58.7782 46.5125 61.2001 51.7078 65.7611 55.8687C66.9611 56.9625 67.997 58.125 68.2611 59.7922C68.8454 63.5297 66.1892 66.6375 62.347 66.6672C58.1048 66.6937 53.8642 66.6672 49.622 66.6672C48.4126 66.6672 48.4126 66.6671 48.3032 67.8875C48.0596 70.5605 47.0135 73.0975 45.3022 75.1654C43.5909 77.2333 41.2945 78.7355 38.7142 79.475C38.0517 79.6609 37.3798 79.8125 36.7111 79.9796L33.2814 79.9875Z" fill="#FBE303"/>
<path d="M63.5828 0.0109863C64.4265 0.210986 65.2781 0.387549 66.1156 0.615674C73.5578 2.64692 78.7624 9.72817 78.3656 17.2704C77.9437 25.2735 72.2999 31.75 64.5749 33.0938C55.2781 34.7125 46.4499 28.2422 45.1859 18.8875C43.9999 10.1079 49.9593 1.90317 58.6781 0.293799C58.9609 0.242236 59.3031 0.293799 59.5218 0.0156738L63.5828 0.0109863Z" fill="#454950"/>
</svg>
