<svg width="38" height="45" viewBox="0 0 38 45" fill="none" xmlns="http://www.w3.org/2000/svg">
<rect x="1.78809" y="7.15283" width="35.7645" height="35.7645" rx="5.96074" fill="#FCEC41"/>
<rect y="8.94116" width="35.7645" height="35.7645" rx="5.96074" fill="#FBE303"/>
<path fill-rule="evenodd" clip-rule="evenodd" d="M14.9097 14.9897C14.8095 15.0383 14.6941 15.1534 14.6461 15.2524C14.566 15.418 14.5744 15.5676 14.7865 17.7462C14.9107 19.0209 15.0112 20.1182 15.0101 20.1845C14.9984 20.8533 13.9911 20.9745 13.7893 20.3314C13.7612 20.2419 13.6869 19.6144 13.6241 18.937C13.5613 18.2595 13.4998 17.674 13.4875 17.6359C13.459 17.5478 12.8511 17.8697 12.1076 18.3666C10.6324 19.3526 9.45103 20.71 8.66883 22.3178C8.37485 22.9222 8.03213 23.907 7.89807 24.5324L7.80542 24.9649H7.43486C6.90077 24.9649 6.67071 25.0485 6.35826 25.3562C5.98217 25.7267 5.87824 26.1185 6.02565 26.6099C6.11202 26.8979 6.55288 27.3321 6.84521 27.4172C7.01407 27.4663 9.54624 27.4809 17.8918 27.4809C30.1066 27.4809 29.0281 27.52 29.446 27.0622C29.9232 26.5394 29.9232 25.9063 29.446 25.3836C29.1655 25.0763 28.8708 24.9649 28.3387 24.9649H27.9581L27.8655 24.5324C27.4305 22.5024 26.246 20.5043 24.6671 19.1369C23.8548 18.4335 22.3286 17.4747 22.2763 17.635C22.2636 17.6736 22.2005 18.2713 22.1361 18.9632C22.0716 19.6551 21.9875 20.2973 21.9492 20.3904C21.8682 20.587 21.5924 20.7711 21.3782 20.7713C21.0563 20.7718 20.7588 20.4923 20.7535 20.1845C20.7523 20.1182 20.853 19.0193 20.9774 17.7426C21.2 15.4566 21.2019 15.4185 21.1057 15.2424C20.916 14.8955 20.9657 14.9007 17.8737 14.9021C15.394 14.9031 15.0682 14.9128 14.9097 14.9897ZM8.96776 29.2066C8.30865 29.3652 7.79036 29.9256 7.68941 30.5888L7.65183 30.8356H6.93701C6.24901 30.8356 6.21729 30.8404 6.09159 30.9642C5.962 31.0918 5.96094 31.101 5.96094 32.0936C5.96094 33.0861 5.962 33.0953 6.09159 33.2229C6.2174 33.3468 6.24863 33.3516 6.94308 33.3516H7.66391V34.2655C7.66391 34.774 7.68866 35.2448 7.71969 35.3269C7.79398 35.5234 9.66576 37.3782 9.88406 37.4716C10.1364 37.5797 15.4058 37.5797 15.6683 37.4717C15.8543 37.3952 15.8715 37.3759 16.5242 36.5111C16.9855 35.8999 17.763 35.0807 17.8818 35.0807C18.0006 35.0807 18.778 35.8999 19.2394 36.5111C19.8921 37.3759 19.9093 37.3952 20.0953 37.4717C20.3577 37.5797 25.6271 37.5797 25.8795 37.4716C26.0978 37.3782 27.9696 35.5234 28.0439 35.3269C28.0749 35.2448 28.0996 34.774 28.0996 34.2655V33.3516H28.8205C29.5149 33.3516 29.5462 33.3468 29.672 33.2229C29.8016 33.0953 29.8026 33.0861 29.8026 32.0936C29.8026 31.101 29.8016 31.0918 29.672 30.9642C29.5463 30.8404 29.5145 30.8356 28.8265 30.8356H28.1117L28.074 30.5882C28.0318 30.3105 27.8529 29.9327 27.653 29.6986C27.5797 29.6128 27.3688 29.462 27.1843 29.3635L26.849 29.1844L17.9882 29.1763C13.1148 29.1719 9.05557 29.1855 8.96776 29.2066ZM26.3967 32.761V34.6866L25.7988 35.277L25.201 35.8676H23.0424H20.8839L20.5424 35.4089C20.3546 35.1567 19.9246 34.6772 19.5868 34.3435C18.4819 33.2517 17.8405 33.1038 16.8991 33.724C16.4471 34.0218 15.6928 34.7804 15.2145 35.4182L14.8775 35.8676H12.7218H10.5659L9.96645 35.2787L9.36689 34.6899V32.7627V30.8356H17.8818H26.3967V32.761Z" fill="#171B24"/>
<path fill-rule="evenodd" clip-rule="evenodd" d="M12.5176 7.15289C12.5176 3.20246 15.72 0 19.6705 0C23.6209 0 26.8234 3.20246 26.8234 7.15289H24.4391C24.4391 4.51927 22.3041 2.3843 19.6705 2.3843C17.0368 2.3843 14.9019 4.51927 14.9019 7.15289H12.5176Z" fill="#FDF074"/>
<path fill-rule="evenodd" clip-rule="evenodd" d="M10.7295 8.94122C10.7295 4.99079 13.932 1.78833 17.8824 1.78833H18.4785C22.4289 1.78833 25.6313 4.99079 25.6313 8.94122H23.2471C23.2471 6.3076 21.1121 4.17263 18.4785 4.17263H17.8824C15.2488 4.17263 13.1138 6.3076 13.1138 8.94122H10.7295Z" fill="#FBE303"/>
</svg>
