<svg width="52" height="52" viewBox="0 0 52 52" fill="none" xmlns="http://www.w3.org/2000/svg">
<rect width="52" height="52" rx="26" fill="#FCEC41"/>
<path d="M34.2372 31.1797L36.3598 32.3984C36.1496 34.1494 36.2105 35.9074 36.2959 37.6594C36.4482 40.8149 36.8707 43.9441 37.2962 47.0712C37.3927 47.7821 37.4283 48.5093 37.6944 49.1898C37.6601 49.2263 37.6215 49.2587 37.5796 49.2862C35.2188 50.461 32.6944 51.2732 30.0914 51.6953C29.4059 51.808 28.703 51.7969 28.0307 51.9939H23.8677C23.8138 51.9624 23.7661 51.9045 23.7062 51.9015C22.393 51.8416 21.1092 51.5866 19.8377 51.2759C17.9425 50.8117 16.1022 50.1891 14.3848 49.2446C14.6184 47.5536 14.8702 45.8656 15.0825 44.1726C15.571 40.2624 15.9966 36.3462 15.6472 32.3913C16.3317 31.9323 17.1361 31.6804 17.7962 31.1807C17.8309 31.2552 17.8565 31.3337 17.8724 31.4143C18.1446 35.1924 18.4229 38.9705 18.6677 42.7507C18.6981 43.2179 18.8342 43.3367 19.2852 43.3347C22.7037 43.3174 26.1213 43.3255 29.543 43.3255C30.6429 43.3255 31.7428 43.3154 32.8427 43.3306C33.183 43.3357 33.3292 43.2423 33.3241 42.8787C33.3191 42.4724 33.381 42.0662 33.4095 41.6599C33.6248 38.5724 33.8289 35.4849 34.0645 32.3984C34.092 31.9922 34.0046 31.5595 34.2372 31.1797Z" fill="#FD7058"/>
<path d="M34.237 31.1796C34.0044 31.5605 34.0917 31.9921 34.0612 32.3984C33.8256 35.4849 33.6215 38.5724 33.4062 41.6599C33.3777 42.0661 33.3158 42.4724 33.3209 42.8786C33.3259 43.2422 33.1797 43.3356 32.8395 43.3306C31.7395 43.3153 30.6396 43.3255 29.5397 43.3255C26.1221 43.3255 22.7045 43.3174 19.2819 43.3346C18.8309 43.3346 18.6948 43.2178 18.6644 42.7506C18.4196 38.9705 18.1413 35.1924 17.8691 31.4142C17.8532 31.3336 17.8276 31.2552 17.793 31.1806C18.4572 30.6728 19.157 30.2128 19.7369 29.5973C20.2095 29.1217 20.5885 28.5615 20.8541 27.9459C20.9089 28.1744 20.9617 28.4039 21.0206 28.6314C21.4563 30.3235 22.1053 31.9058 23.517 33.0342C24.748 34.0173 26.0947 34.4113 27.5948 33.6131C28.4322 33.1676 29.1451 32.52 29.6687 31.7291C30.4466 30.5763 30.8285 29.2743 31.1434 27.9438C31.8157 29.3657 33.008 30.292 34.237 31.1796Z" fill="#2F323A"/>
<path d="M34.746 17.0623C35.5635 17.0978 36.1607 17.6716 36.1485 18.4059C36.1363 19.1402 35.5219 19.6998 34.7094 19.7161C34.4748 19.7161 34.2371 19.6927 34.0137 19.7943L32.8152 19.8024C32.6751 19.7181 32.5187 19.7466 32.3684 19.7466C28.1231 19.7466 23.8777 19.7466 19.6324 19.7466C19.4821 19.7466 19.3277 19.7181 19.1856 19.8024L17.9942 19.7902C17.7728 19.6694 17.5321 19.7232 17.2995 19.7171C16.5429 19.6998 15.9731 19.2438 15.8645 18.5593C15.7629 17.9205 16.2281 17.2857 16.9522 17.0663C17.0467 17.0379 17.136 16.9912 17.2274 16.9536C18.8809 16.9536 20.5343 16.9536 22.1877 16.9709C22.5534 16.9709 22.6336 16.8784 22.5706 16.4986C22.1989 14.2642 21.8851 12.0126 21.5012 9.77617C21.359 8.95453 21.3631 8.09938 21.0238 7.31328C21.1396 7.15078 21.1132 6.95984 21.1315 6.77602C21.2097 5.97367 21.8638 5.30031 22.6702 5.29219C24.9045 5.26849 27.1362 5.26849 29.3652 5.29219C30.1645 5.2993 30.8135 5.98586 30.8713 6.80039C30.8825 6.96797 30.8713 7.13758 30.8764 7.3082C30.8317 7.65859 30.7972 8.01 30.7424 8.35836C30.3097 11.1137 29.8842 13.8712 29.422 16.6225C29.351 17.046 29.5124 17.0714 29.8283 17.0704C31.4726 17.0623 33.1098 17.0623 34.746 17.0623Z" fill="#FE7058"/>
<path d="M19.1852 19.8046C19.3253 19.7203 19.4817 19.7488 19.6321 19.7488C23.8774 19.7488 28.1227 19.7488 32.368 19.7488C32.5183 19.7488 32.6727 19.7203 32.8149 19.8046C32.9342 20.9196 32.8306 22.0471 32.5102 23.1216C32.4878 23.1968 32.5305 23.2466 32.5975 23.2781C32.0536 24.3938 31.4372 25.4727 30.7521 26.5077C30.2342 27.0156 29.7629 27.5569 29.2125 28.0363C27.3254 29.6795 24.6746 29.6795 22.7876 28.0363C22.2422 27.5579 21.7659 27.0156 21.2479 26.5077C20.537 25.4738 19.9571 24.3678 19.3842 23.2577C19.3977 23.0913 19.3953 22.924 19.3771 22.7581C19.176 21.78 19.0633 20.7989 19.1852 19.8046Z" fill="#FEFDFC"/>
<path d="M14.3857 49.2383C11.6765 47.9108 9.23275 46.0993 7.1748 43.8931C7.53129 41.9319 7.93043 39.9809 8.66371 38.1172C9.14715 36.8873 9.70269 35.696 10.5467 34.6641C10.666 34.5006 10.83 34.375 11.0189 34.3026C12.5972 33.7501 14.1339 33.094 15.6502 32.3901C15.9945 36.3419 15.574 40.2582 15.0855 44.1714C14.8712 45.8594 14.6193 47.5473 14.3857 49.2383Z" fill="#2F323A"/>
<path d="M44.7732 43.9218C42.733 46.0716 40.3368 47.8527 37.6902 49.1868C37.4242 48.5064 37.3856 47.7782 37.2921 47.0682C36.8666 43.9411 36.4441 40.812 36.2917 37.6564C36.2064 35.9045 36.1455 34.1464 36.3557 32.3955C37.8466 33.1129 39.3777 33.7436 40.9413 34.2846C41.3333 34.4166 41.5293 34.7294 41.7375 35.029C42.9035 36.7048 43.5494 38.6 44.0735 40.551C44.3741 41.6631 44.4949 42.8077 44.7732 43.9218Z" fill="#2F323A"/>
<path d="M34.7456 17.0627C33.1094 17.0627 31.4722 17.0627 29.836 17.0688C29.5151 17.0688 29.3536 17.0445 29.4298 16.6209C29.8888 13.8696 30.3144 11.1122 30.7501 8.3568C30.8049 8.00844 30.8395 7.65703 30.8842 7.30664C32.9977 8.60664 34.2713 10.4977 34.838 12.8926C35.1599 14.2941 35.0482 15.6784 34.7456 17.0627Z" fill="#F0543F"/>
<path d="M21.0238 7.3125C21.363 8.09859 21.3589 8.95375 21.5011 9.77539C21.885 12.0098 22.1988 14.2594 22.5706 16.4978C22.6335 16.8777 22.5533 16.9741 22.1877 16.9701C20.5342 16.9548 18.8808 16.9569 17.2274 16.9528C16.7776 15.1507 16.9017 13.2531 17.5822 11.5249C18.2628 9.79667 19.466 8.32403 21.0238 7.3125Z" fill="#F0543F"/>
<path d="M31.1487 27.9409C30.8338 29.2713 30.452 30.5734 29.674 31.7261C29.1504 32.5171 28.4375 33.1647 27.6001 33.6101C26.1 34.4084 24.7563 34.0163 23.5223 33.0312C22.1106 31.9028 21.4616 30.3205 21.0259 28.6285C20.967 28.401 20.9142 28.1714 20.8594 27.9429C20.8716 27.6382 20.9792 27.3599 21.0767 27.0786C21.618 27.6067 22.0923 28.1897 22.653 28.7036C24.4435 30.3672 26.946 30.5074 28.9021 29.051C29.6659 28.4822 30.257 27.7489 30.9181 27.0817C30.9953 27.3694 31.0722 27.6558 31.1487 27.9409Z" fill="#FDFDFC"/>
<path d="M30.9176 27.0845C30.2564 27.7518 29.6653 28.4851 28.9016 29.0538C26.9455 30.5102 24.443 30.3741 22.6524 28.7065C22.0969 28.1895 21.6175 27.6066 21.0762 27.0815C21.127 26.8895 21.1178 26.6752 21.2478 26.5117C21.7658 27.0195 22.237 27.5609 22.7875 28.0402C24.6745 29.6835 27.3253 29.6835 29.2123 28.0402C29.7628 27.5609 30.2341 27.0165 30.752 26.5117C30.881 26.6793 30.8749 26.8885 30.9176 27.0845Z" fill="#E7E9ED"/>
<path d="M32.6011 23.275C32.5341 23.2435 32.4915 23.1938 32.5138 23.1186C32.8343 22.0441 32.9378 20.9165 32.8185 19.8016L34.0169 19.7935C33.8463 21.0782 33.5152 22.297 32.6011 23.275Z" fill="#2F323A"/>
<path d="M19.1855 19.8047C19.0636 20.802 19.1764 21.7831 19.3775 22.7601C19.3956 22.9261 19.398 23.0934 19.3846 23.2598C18.9082 22.8739 18.697 22.3183 18.4837 21.777C18.2329 21.1412 17.9942 20.4943 17.9932 19.7925L19.1855 19.8047Z" fill="#2F323A"/>
</svg>
